<svg xmlns="http://www.w3.org/2000/svg" viewBox="0 0 640 300" font-family="-apple-system, BlinkMacSystemFont, 'Segoe UI', Helvetica, Arial, sans-serif" role="img" aria-label="Rare large-effect versus common small-effect variants.">
<defs><marker id="afsarw" viewBox="0 0 10 10" refX="9" refY="5" markerWidth="6" markerHeight="6" orient="auto-start-reverse"><path d="M 0 0 L 10 5 L 0 10 z" fill="#17181b"/></marker></defs>
<text x="24.0" y="30.0" font-size="11" font-weight="700" fill="#6a6d73" letter-spacing="1">VARIANT TO MECHANISM ACROSS THE FREQUENCY SPECTRUM</text>
<line x1="96" y1="58" x2="96" y2="252" stroke="#cfcdc4" stroke-width="1.5"/>
<line x1="96" y1="252" x2="606" y2="252" stroke="#cfcdc4" stroke-width="1.5"/>
<text x="351" y="284" font-size="12" text-anchor="middle" fill="#3b3d42">allele frequency:  rare  to  common</text>
<text x="36" y="155" font-size="12" text-anchor="middle" fill="#3b3d42" transform="rotate(-90 36 155)">effect size:  large  to  small</text>
<path d="M 122 84 C 250 98, 300 222, 592 240" fill="none" stroke="#6a6d73" stroke-width="1.5" stroke-dasharray="5 4"/>
<circle cx="140" cy="96" r="4" fill="#b04a3f"/>
<circle cx="162" cy="112" r="4" fill="#b04a3f"/>
<circle cx="128" cy="120" r="4" fill="#b04a3f"/>
<circle cx="180" cy="100" r="4" fill="#b04a3f"/>
<circle cx="150" cy="132" r="4" fill="#b04a3f"/>
<circle cx="470" cy="236" r="4" fill="#274b6d"/>
<circle cx="502" cy="242" r="4" fill="#274b6d"/>
<circle cx="540" cy="238" r="4" fill="#274b6d"/>
<circle cx="562" cy="244" r="4" fill="#274b6d"/>
<circle cx="432" cy="232" r="4" fill="#274b6d"/>
<circle cx="410" cy="228" r="4" fill="#274b6d"/>
<rect x="150.0" y="150.0" width="214.0" height="28.0" rx="6" fill="#fdecea" stroke="#b04a3f"/>
<text x="257.0" y="167.5" font-size="10" font-weight="400" text-anchor="middle" fill="#17181b">rare + large: Mendelian, AlphaMissense</text>
<rect x="356.0" y="186.0" width="236.0" height="28.0" rx="6" fill="#eaf0f6" stroke="#274b6d"/>
<text x="474.0" y="203.5" font-size="10" font-weight="400" text-anchor="middle" fill="#17181b">common + small: GWAS, LD, fine-mapping</text>
</svg>