<svg xmlns="http://www.w3.org/2000/svg" viewBox="0 0 640 320" font-family="-apple-system, BlinkMacSystemFont, 'Segoe UI', Helvetica, Arial, sans-serif" role="img" aria-label="Fine-mapping narrows variants, colocalization ties them to a gene, and Mendelian randomization uses inheritance as an instrument.">
<defs><marker id="atc-arw" viewBox="0 0 10 10" refX="9" refY="5" markerWidth="6" markerHeight="6" orient="auto-start-reverse"><path d="M 0 0 L 10 5 L 0 10 z" fill="#274b6d"/></marker></defs>
<defs><marker id="atc-mut" viewBox="0 0 10 10" refX="9" refY="5" markerWidth="6" markerHeight="6" orient="auto-start-reverse"><path d="M 0 0 L 10 5 L 0 10 z" fill="#6a6d73"/></marker></defs>
<text x="24.0" y="30.0" font-size="11" font-weight="700" fill="#6a6d73" letter-spacing="1">THREE ROUTES FROM ASSOCIATION TO CAUSE</text>
<text x="24" y="64" font-family="-apple-system, BlinkMacSystemFont, 'Segoe UI', Helvetica, Arial, sans-serif" font-size="12.5" fill="#17181b" font-weight="600">Fine-mapping</text>
<text x="232" y="64" font-family="-apple-system, BlinkMacSystemFont, 'Segoe UI', Helvetica, Arial, sans-serif" font-size="12.5" fill="#17181b" font-weight="600">Colocalization</text>
<text x="440" y="64" font-family="-apple-system, BlinkMacSystemFont, 'Segoe UI', Helvetica, Arial, sans-serif" font-size="12.5" fill="#17181b" font-weight="600">Mendelian rand.</text>
<circle cx="36" cy="100" r="5" fill="#6a6d73"/>
<circle cx="59" cy="100" r="5" fill="#6a6d73"/>
<circle cx="82" cy="100" r="5" fill="#6a6d73"/>
<circle cx="105" cy="100" r="5" fill="#6a6d73"/>
<circle cx="128" cy="100" r="5" fill="#6a6d73"/>
<circle cx="151" cy="100" r="5" fill="#6a6d73"/>
<circle cx="174" cy="100" r="5" fill="#6a6d73"/>
<text x="24" y="124" font-family="-apple-system, BlinkMacSystemFont, 'Segoe UI', Helvetica, Arial, sans-serif" font-size="10.5" fill="#6a6d73">associated SNPs (LD)</text>
<line x1="112" y1="134" x2="112" y2="158" stroke="#274b6d" stroke-width="2" marker-end="url(#atc-arw)"/>
<rect x="24.0" y="168.0" width="176.0" height="48.0" rx="6" fill="#eaf0f6" stroke="#274b6d"/>
<text x="112.0" y="195.8" font-size="11" font-weight="400" text-anchor="middle" fill="#17181b">credible set: a few high-PIP SNPs</text>
<line x1="320" y1="78" x2="320" y2="170" stroke="#e4e3dd" stroke-width="1" stroke-dasharray="3 3"/>
<polyline points="240,149 260,145 280,134 296,114 308,96 320,84 332,96 344,114 360,134 380,145 400,149" fill="none" stroke="#274b6d" stroke-width="2"/>
<polyline points="240,157 260,153 280,142 296,122 308,104 320,92 332,104 344,122 360,142 380,153 400,157" fill="none" stroke="#6b4f9c" stroke-width="2"/>
<text x="232" y="190" font-family="-apple-system, BlinkMacSystemFont, 'Segoe UI', Helvetica, Arial, sans-serif" font-size="10.5" fill="#274b6d">GWAS</text>
<text x="276" y="190" font-family="-apple-system, BlinkMacSystemFont, 'Segoe UI', Helvetica, Arial, sans-serif" font-size="10.5" fill="#6b4f9c">eQTL</text>
<text x="232" y="208" font-family="-apple-system, BlinkMacSystemFont, 'Segoe UI', Helvetica, Arial, sans-serif" font-size="10.5" fill="#6a6d73">same peak = shared cause</text>
<rect x="440.0" y="100.0" width="46.0" height="32.0" rx="6" fill="#ffffff" stroke="#cfcdc4"/>
<text x="463.0" y="119.5" font-size="10" font-weight="400" text-anchor="middle" fill="#17181b">variant</text>
<rect x="494.0" y="100.0" width="54.0" height="32.0" rx="6" fill="#ffffff" stroke="#cfcdc4"/>
<text x="521.0" y="119.5" font-size="10" font-weight="400" text-anchor="middle" fill="#17181b">exposure</text>
<rect x="556.0" y="100.0" width="44.0" height="32.0" rx="6" fill="#ffffff" stroke="#cfcdc4"/>
<text x="578.0" y="119.5" font-size="10" font-weight="400" text-anchor="middle" fill="#17181b">trait</text>
<line x1="486" y1="116" x2="494" y2="116" stroke="#274b6d" stroke-width="1.8" marker-end="url(#atc-arw)"/>
<line x1="548" y1="116" x2="556" y2="116" stroke="#274b6d" stroke-width="1.8" marker-end="url(#atc-arw)"/>
<rect x="490.0" y="166.0" width="62.0" height="30.0" rx="6" fill="#ffffff" stroke="#e4e3dd"/>
<text x="521.0" y="184.3" font-size="9.5" font-weight="400" text-anchor="middle" fill="#6a6d73">confounder</text>
<line x1="518" y1="166" x2="514" y2="134" stroke="#6a6d73" stroke-width="1" stroke-dasharray="3 3" marker-end="url(#atc-mut)"/>
<line x1="536" y1="166" x2="572" y2="134" stroke="#6a6d73" stroke-width="1" stroke-dasharray="3 3" marker-end="url(#atc-mut)"/>
<text x="440" y="90" font-family="-apple-system, BlinkMacSystemFont, 'Segoe UI', Helvetica, Arial, sans-serif" font-size="9.5" fill="#6a6d73">random at conception</text>
</svg>