<svg xmlns="http://www.w3.org/2000/svg" viewBox="0 0 640 250" font-family="-apple-system, BlinkMacSystemFont, 'Segoe UI', Helvetica, Arial, sans-serif" role="img" aria-label="A token becomes a vector, and attention blends the other positions into it.">
<defs><marker id="af1" viewBox="0 0 10 10" refX="9" refY="5" markerWidth="6" markerHeight="6" orient="auto-start-reverse"><path d="M 0 0 L 10 5 L 0 10 z" fill="#cfcdc4"/></marker></defs>
<text x="24.0" y="28.0" font-size="11" font-weight="700" fill="#6a6d73" letter-spacing="1">TOKEN -> VECTOR -> CONTEXT-AWARE VECTOR</text>
<rect x="70.0" y="52.0" width="56.0" height="38.0" rx="6" fill="#ffffff" stroke="#cfcdc4"/>
<text x="98.0" y="76.2" font-size="15" font-weight="600" text-anchor="middle" fill="#17181b">M</text>
<line x1="98" y1="90" x2="98" y2="150" stroke="#cfcdc4" stroke-width="1.5" marker-end="url(#af1)"/>
<rect x="170.0" y="52.0" width="56.0" height="38.0" rx="6" fill="#ffffff" stroke="#cfcdc4"/>
<text x="198.0" y="76.2" font-size="15" font-weight="600" text-anchor="middle" fill="#17181b">K</text>
<line x1="198" y1="90" x2="198" y2="150" stroke="#cfcdc4" stroke-width="1.5" marker-end="url(#af1)"/>
<rect x="270.0" y="52.0" width="56.0" height="38.0" rx="6" fill="#ffffff" stroke="#cfcdc4"/>
<text x="298.0" y="76.2" font-size="15" font-weight="600" text-anchor="middle" fill="#17181b">T</text>
<line x1="298" y1="90" x2="298" y2="150" stroke="#cfcdc4" stroke-width="1.5" marker-end="url(#af1)"/>
<rect x="370.0" y="52.0" width="56.0" height="38.0" rx="6" fill="#ffffff" stroke="#cfcdc4"/>
<text x="398.0" y="76.2" font-size="15" font-weight="600" text-anchor="middle" fill="#17181b">A</text>
<line x1="398" y1="90" x2="398" y2="150" stroke="#cfcdc4" stroke-width="1.5" marker-end="url(#af1)"/>
<rect x="470.0" y="52.0" width="56.0" height="38.0" rx="6" fill="#ffffff" stroke="#cfcdc4"/>
<text x="498.0" y="76.2" font-size="15" font-weight="600" text-anchor="middle" fill="#17181b">Y</text>
<line x1="498" y1="90" x2="498" y2="150" stroke="#cfcdc4" stroke-width="1.5" marker-end="url(#af1)"/>
<rect x="70.0" y="150.0" width="56.0" height="36.0" rx="6" fill="#f4f3ee" stroke="#cfcdc4"/>
<text x="98.0" y="171.8" font-size="11" font-weight="400" text-anchor="middle" fill="#17181b">vec</text>
<rect x="170.0" y="150.0" width="56.0" height="36.0" rx="6" fill="#f4f3ee" stroke="#cfcdc4"/>
<text x="198.0" y="171.8" font-size="11" font-weight="400" text-anchor="middle" fill="#17181b">vec</text>
<rect x="270.0" y="150.0" width="56.0" height="36.0" rx="6" fill="#eaf0f6" stroke="#cfcdc4"/>
<text x="298.0" y="171.8" font-size="11" font-weight="400" text-anchor="middle" fill="#17181b">vec</text>
<rect x="370.0" y="150.0" width="56.0" height="36.0" rx="6" fill="#f4f3ee" stroke="#cfcdc4"/>
<text x="398.0" y="171.8" font-size="11" font-weight="400" text-anchor="middle" fill="#17181b">vec</text>
<rect x="470.0" y="150.0" width="56.0" height="36.0" rx="6" fill="#f4f3ee" stroke="#cfcdc4"/>
<text x="498.0" y="171.8" font-size="11" font-weight="400" text-anchor="middle" fill="#17181b">vec</text>
<path d="M 298 186 Q 198 235 98 186" fill="none" stroke="#6b4f9c" stroke-width="1.5" opacity="0.55"/>
<path d="M 298 186 Q 248 235 198 186" fill="none" stroke="#6b4f9c" stroke-width="1.5" opacity="0.55"/>
<path d="M 298 186 Q 348 235 398 186" fill="none" stroke="#6b4f9c" stroke-width="1.5" opacity="0.55"/>
<path d="M 298 186 Q 398 235 498 186" fill="none" stroke="#6b4f9c" stroke-width="1.5" opacity="0.55"/>
</svg>