<svg xmlns="http://www.w3.org/2000/svg" viewBox="0 0 680 300" font-family="-apple-system, BlinkMacSystemFont, 'Segoe UI', Helvetica, Arial, sans-serif" role="img" aria-label="Single-cell data is a sparse count matrix whose zeros are ambiguous">
<defs><marker id="arrow_cbg" viewBox="0 0 10 10" refX="9" refY="5" markerWidth="6" markerHeight="6" orient="auto-start-reverse"><path d="M 0 0 L 10 5 L 0 10 z" fill="#3b3d42"/></marker></defs>
<text x="24.0" y="28.0" font-size="11" font-weight="700" fill="#6a6d73" letter-spacing="1">A HUGE, MOSTLY-EMPTY COUNT MATRIX</text>
<text x="136" y="170" text-anchor="middle" font-family="-apple-system, BlinkMacSystemFont, 'Segoe UI', Helvetica, Arial, sans-serif" font-size="10" fill="#6a6d73" transform="rotate(-90 136 170)">cells</text>
<text x="348" y="62" text-anchor="middle" font-family="-apple-system, BlinkMacSystemFont, 'Segoe UI', Helvetica, Arial, sans-serif" font-size="10" fill="#6a6d73">genes</text>
<rect x="150" y="70" width="30" height="22" rx="2" fill="#274b6d" opacity="0.35"/>
<rect x="183" y="70" width="30" height="22" rx="2" fill="#ffffff" stroke="#e4e3dd"/>
<rect x="216" y="70" width="30" height="22" rx="2" fill="#ffffff" stroke="#e4e3dd"/>
<rect x="249" y="70" width="30" height="22" rx="2" fill="#ffffff" stroke="#e4e3dd"/>
<rect x="282" y="70" width="30" height="22" rx="2" fill="#ffffff" stroke="#e4e3dd"/>
<rect x="315" y="70" width="30" height="22" rx="2" fill="#ffffff" stroke="#e4e3dd"/>
<rect x="348" y="70" width="30" height="22" rx="2" fill="#ffffff" stroke="#e4e3dd"/>
<rect x="381" y="70" width="30" height="22" rx="2" fill="#274b6d" opacity="0.60"/>
<rect x="414" y="70" width="30" height="22" rx="2" fill="#ffffff" stroke="#e4e3dd"/>
<rect x="447" y="70" width="30" height="22" rx="2" fill="#ffffff" stroke="#e4e3dd"/>
<rect x="480" y="70" width="30" height="22" rx="2" fill="#ffffff" stroke="#e4e3dd"/>
<rect x="513" y="70" width="30" height="22" rx="2" fill="#ffffff" stroke="#e4e3dd"/>
<rect x="150" y="95" width="30" height="22" rx="2" fill="#ffffff" stroke="#e4e3dd"/>
<rect x="183" y="95" width="30" height="22" rx="2" fill="#ffffff" stroke="#e4e3dd"/>
<rect x="216" y="95" width="30" height="22" rx="2" fill="#274b6d" opacity="0.35"/>
<rect x="249" y="95" width="30" height="22" rx="2" fill="#ffffff" stroke="#e4e3dd"/>
<rect x="282" y="95" width="30" height="22" rx="2" fill="#ffffff" stroke="#e4e3dd"/>
<rect x="315" y="95" width="30" height="22" rx="2" fill="#ffffff" stroke="#e4e3dd"/>
<rect x="348" y="95" width="30" height="22" rx="2" fill="#ffffff" stroke="#e4e3dd"/>
<rect x="381" y="95" width="30" height="22" rx="2" fill="#ffffff" stroke="#e4e3dd"/>
<rect x="414" y="95" width="30" height="22" rx="2" fill="#ffffff" stroke="#e4e3dd"/>
<rect x="447" y="95" width="30" height="22" rx="2" fill="#274b6d" opacity="0.60"/>
<rect x="480" y="95" width="30" height="22" rx="2" fill="#ffffff" stroke="#e4e3dd"/>
<rect x="513" y="95" width="30" height="22" rx="2" fill="#ffffff" stroke="#e4e3dd"/>
<rect x="150" y="120" width="30" height="22" rx="2" fill="#ffffff" stroke="#e4e3dd"/>
<rect x="183" y="120" width="30" height="22" rx="2" fill="#ffffff" stroke="#e4e3dd"/>
<rect x="216" y="120" width="30" height="22" rx="2" fill="#ffffff" stroke="#e4e3dd"/>
<rect x="249" y="120" width="30" height="22" rx="2" fill="#ffffff" stroke="#e4e3dd"/>
<rect x="282" y="120" width="30" height="22" rx="2" fill="#274b6d" opacity="0.35"/>
<rect x="315" y="120" width="30" height="22" rx="2" fill="#ffffff" stroke="#e4e3dd"/>
<rect x="348" y="120" width="30" height="22" rx="2" fill="#ffffff" stroke="#e4e3dd"/>
<rect x="381" y="120" width="30" height="22" rx="2" fill="#ffffff" stroke="#e4e3dd"/>
<rect x="414" y="120" width="30" height="22" rx="2" fill="#ffffff" stroke="#e4e3dd"/>
<rect x="447" y="120" width="30" height="22" rx="2" fill="#ffffff" stroke="#e4e3dd"/>
<rect x="480" y="120" width="30" height="22" rx="2" fill="#ffffff" stroke="#e4e3dd"/>
<rect x="513" y="120" width="30" height="22" rx="2" fill="#274b6d" opacity="0.60"/>
<rect x="150" y="145" width="30" height="22" rx="2" fill="#ffffff" stroke="#e4e3dd"/>
<rect x="183" y="145" width="30" height="22" rx="2" fill="#ffffff" stroke="#e4e3dd"/>
<rect x="216" y="145" width="30" height="22" rx="2" fill="#ffffff" stroke="#e4e3dd"/>
<rect x="249" y="145" width="30" height="22" rx="2" fill="#ffffff" stroke="#e4e3dd"/>
<rect x="282" y="145" width="30" height="22" rx="2" fill="#ffffff" stroke="#e4e3dd"/>
<rect x="315" y="145" width="30" height="22" rx="2" fill="#ffffff" stroke="#e4e3dd"/>
<rect x="348" y="145" width="30" height="22" rx="2" fill="#274b6d" opacity="0.35"/>
<rect x="381" y="145" width="30" height="22" rx="2" fill="#ffffff" stroke="#e4e3dd"/>
<rect x="414" y="145" width="30" height="22" rx="2" fill="#ffffff" stroke="#e4e3dd"/>
<rect x="447" y="145" width="30" height="22" rx="2" fill="#ffffff" stroke="#e4e3dd"/>
<rect x="480" y="145" width="30" height="22" rx="2" fill="#ffffff" stroke="#e4e3dd"/>
<rect x="513" y="145" width="30" height="22" rx="2" fill="#ffffff" stroke="#e4e3dd"/>
<rect x="150" y="170" width="30" height="22" rx="2" fill="#ffffff" stroke="#e4e3dd"/>
<rect x="183" y="170" width="30" height="22" rx="2" fill="#274b6d" opacity="0.85"/>
<rect x="216" y="170" width="30" height="22" rx="2" fill="#ffffff" stroke="#e4e3dd"/>
<rect x="249" y="170" width="30" height="22" rx="2" fill="#ffffff" stroke="#e4e3dd"/>
<rect x="282" y="170" width="30" height="22" rx="2" fill="#ffffff" stroke="#e4e3dd"/>
<rect x="315" y="170" width="30" height="22" rx="2" fill="#ffffff" stroke="#e4e3dd"/>
<rect x="348" y="170" width="30" height="22" rx="2" fill="#ffffff" stroke="#e4e3dd"/>
<rect x="381" y="170" width="30" height="22" rx="2" fill="#ffffff" stroke="#e4e3dd"/>
<rect x="414" y="170" width="30" height="22" rx="2" fill="#274b6d" opacity="0.35"/>
<rect x="447" y="170" width="30" height="22" rx="2" fill="#ffffff" stroke="#e4e3dd"/>
<rect x="480" y="170" width="30" height="22" rx="2" fill="#ffffff" stroke="#e4e3dd"/>
<rect x="513" y="170" width="30" height="22" rx="2" fill="#ffffff" stroke="#e4e3dd"/>
<rect x="150" y="195" width="30" height="22" rx="2" fill="#ffffff" stroke="#e4e3dd"/>
<rect x="183" y="195" width="30" height="22" rx="2" fill="#ffffff" stroke="#e4e3dd"/>
<rect x="216" y="195" width="30" height="22" rx="2" fill="#ffffff" stroke="#e4e3dd"/>
<rect x="249" y="195" width="30" height="22" rx="2" fill="#274b6d" opacity="0.85"/>
<rect x="282" y="195" width="30" height="22" rx="2" fill="#ffffff" stroke="#e4e3dd"/>
<rect x="315" y="195" width="30" height="22" rx="2" fill="#ffffff" stroke="#e4e3dd"/>
<rect x="348" y="195" width="30" height="22" rx="2" fill="#ffffff" stroke="#e4e3dd"/>
<rect x="381" y="195" width="30" height="22" rx="2" fill="#ffffff" stroke="#e4e3dd"/>
<rect x="414" y="195" width="30" height="22" rx="2" fill="#ffffff" stroke="#e4e3dd"/>
<rect x="447" y="195" width="30" height="22" rx="2" fill="#ffffff" stroke="#e4e3dd"/>
<rect x="480" y="195" width="30" height="22" rx="2" fill="#274b6d" opacity="0.35"/>
<rect x="513" y="195" width="30" height="22" rx="2" fill="#ffffff" stroke="#e4e3dd"/>
<rect x="150" y="220" width="30" height="22" rx="2" fill="#ffffff" stroke="#e4e3dd"/>
<rect x="183" y="220" width="30" height="22" rx="2" fill="#ffffff" stroke="#e4e3dd"/>
<rect x="216" y="220" width="30" height="22" rx="2" fill="#ffffff" stroke="#e4e3dd"/>
<rect x="249" y="220" width="30" height="22" rx="2" fill="#ffffff" stroke="#e4e3dd"/>
<rect x="282" y="220" width="30" height="22" rx="2" fill="#ffffff" stroke="#e4e3dd"/>
<rect x="315" y="220" width="30" height="22" rx="2" fill="#274b6d" opacity="0.85"/>
<rect x="348" y="220" width="30" height="22" rx="2" fill="#ffffff" stroke="#e4e3dd"/>
<rect x="381" y="220" width="30" height="22" rx="2" fill="#ffffff" stroke="#e4e3dd"/>
<rect x="414" y="220" width="30" height="22" rx="2" fill="#ffffff" stroke="#e4e3dd"/>
<rect x="447" y="220" width="30" height="22" rx="2" fill="#ffffff" stroke="#e4e3dd"/>
<rect x="480" y="220" width="30" height="22" rx="2" fill="#ffffff" stroke="#e4e3dd"/>
<rect x="513" y="220" width="30" height="22" rx="2" fill="#ffffff" stroke="#e4e3dd"/>
<rect x="150" y="245" width="30" height="22" rx="2" fill="#274b6d" opacity="0.60"/>
<rect x="183" y="245" width="30" height="22" rx="2" fill="#ffffff" stroke="#e4e3dd"/>
<rect x="216" y="245" width="30" height="22" rx="2" fill="#ffffff" stroke="#e4e3dd"/>
<rect x="249" y="245" width="30" height="22" rx="2" fill="#ffffff" stroke="#e4e3dd"/>
<rect x="282" y="245" width="30" height="22" rx="2" fill="#ffffff" stroke="#e4e3dd"/>
<rect x="315" y="245" width="30" height="22" rx="2" fill="#ffffff" stroke="#e4e3dd"/>
<rect x="348" y="245" width="30" height="22" rx="2" fill="#ffffff" stroke="#e4e3dd"/>
<rect x="381" y="245" width="30" height="22" rx="2" fill="#274b6d" opacity="0.85"/>
<rect x="414" y="245" width="30" height="22" rx="2" fill="#ffffff" stroke="#e4e3dd"/>
<rect x="447" y="245" width="30" height="22" rx="2" fill="#ffffff" stroke="#e4e3dd"/>
<rect x="480" y="245" width="30" height="22" rx="2" fill="#ffffff" stroke="#e4e3dd"/>
<rect x="513" y="245" width="30" height="22" rx="2" fill="#ffffff" stroke="#e4e3dd"/>
<rect x="560.0" y="90.0" width="100.0" height="26.0" rx="6" fill="#eaf0f6" stroke="#cfcdc4"/>
<text x="610.0" y="106.3" font-size="9.5" font-weight="400" text-anchor="middle" fill="#17181b">true off</text>
<line x1="558" y1="103" x2="363" y2="106" stroke="#3b3d42" stroke-width="1" marker-end="url(#arrow_cbg)"/>
<rect x="560.0" y="165.0" width="100.0" height="26.0" rx="6" fill="#f4ede0" stroke="#cfcdc4"/>
<text x="610.0" y="181.2" font-size="9" font-weight="400" text-anchor="middle" fill="#17181b">dropout (missed)</text>
<line x1="558" y1="178" x2="528" y2="156" stroke="#3b3d42" stroke-width="1" marker-end="url(#arrow_cbg)"/>
<text x="150" y="288" font-family="-apple-system, BlinkMacSystemFont, 'Segoe UI', Helvetica, Arial, sans-serif" font-size="10" fill="#6a6d73">over 90% of entries are zero</text>
</svg>