<svg xmlns="http://www.w3.org/2000/svg" viewBox="0 0 640 300" font-family="-apple-system, BlinkMacSystemFont, 'Segoe UI', Helvetica, Arial, sans-serif" role="img" aria-label="A GWAS peak lights up a whole correlated block; the tallest SNP need not be the causal one.">
<defs><marker id="ld-arw" viewBox="0 0 10 10" refX="9" refY="5" markerWidth="6" markerHeight="6" orient="auto-start-reverse"><path d="M 0 0 L 10 5 L 0 10 z" fill="#274b6d"/></marker></defs>
<text x="24.0" y="30.0" font-size="11" font-weight="700" fill="#6a6d73" letter-spacing="1">THE TOP HIT IS A TAG, NOT THE CAUSE</text>
<line x1="90" y1="200" x2="610" y2="200" stroke="#cfcdc4" stroke-width="1.5"/>
<text x="90" y="220" font-family="-apple-system, BlinkMacSystemFont, 'Segoe UI', Helvetica, Arial, sans-serif" font-size="11" fill="#6a6d73">genomic position</text>
<text x="80" y="64" text-anchor="end" font-family="-apple-system, BlinkMacSystemFont, 'Segoe UI', Helvetica, Arial, sans-serif" font-size="11" fill="#3b3d42">assoc.</text>
<circle cx="114" cy="189" r="5" fill="#6a6d73"/>
<circle cx="161" cy="183" r="5" fill="#6a6d73"/>
<circle cx="208" cy="172" r="5" fill="#6a6d73"/>
<circle cx="255" cy="137" r="5" fill="#6a6d73"/>
<circle cx="303" cy="102" r="7" fill="#9c6b12"/>
<circle cx="350" cy="67" r="7" fill="#274b6d"/>
<circle cx="397" cy="88" r="5" fill="#6a6d73"/>
<circle cx="445" cy="116" r="5" fill="#6a6d73"/>
<circle cx="492" cy="158" r="5" fill="#6a6d73"/>
<circle cx="539" cy="179" r="5" fill="#6a6d73"/>
<circle cx="586" cy="187" r="5" fill="#6a6d73"/>
<path d="M 247 230 L 247 238 L 453 238 L 453 230" fill="none" stroke="#cfcdc4" stroke-width="1.2"/>
<text x="350" y="254" text-anchor="middle" font-family="-apple-system, BlinkMacSystemFont, 'Segoe UI', Helvetica, Arial, sans-serif" font-size="11" fill="#3b3d42">one LD block: these SNPs are correlated</text>
<text x="350" y="55" text-anchor="middle" font-family="-apple-system, BlinkMacSystemFont, 'Segoe UI', Helvetica, Arial, sans-serif" font-size="11" fill="#274b6d" font-weight="600">lead SNP</text>
<text x="303" y="90" text-anchor="middle" font-family="-apple-system, BlinkMacSystemFont, 'Segoe UI', Helvetica, Arial, sans-serif" font-size="11" fill="#9c6b12" font-weight="600">true cause</text>
</svg>