<svg xmlns="http://www.w3.org/2000/svg" viewBox="0 0 640 205" font-family="-apple-system, BlinkMacSystemFont, 'Segoe UI', Helvetica, Arial, sans-serif" role="img" aria-label="Five molecular problems along a therapeutic pipeline.">
<defs><marker id="mparw" viewBox="0 0 10 10" refX="9" refY="5" markerWidth="6" markerHeight="6" orient="auto-start-reverse"><path d="M 0 0 L 10 5 L 0 10 z" fill="#274b6d"/></marker></defs>
<text x="24.0" y="30.0" font-size="11" font-weight="700" fill="#6a6d73" letter-spacing="1">ONE THERAPEUTIC PIPELINE, FIVE PROBLEMS</text>
<rect x="16.0" y="78.0" width="104.0" height="58.0" rx="6" fill="#eaf0f6" stroke="#274b6d"/>
<text x="68.0" y="111.5" font-size="13" font-weight="600" text-anchor="middle" fill="#17181b">target</text>
<text x="68.0" y="156" font-size="11" text-anchor="middle" fill="#6a6d73">Ch 6</text>
<rect x="140.0" y="78.0" width="104.0" height="58.0" rx="6" fill="#ffffff" stroke="#cfcdc4"/>
<text x="192.0" y="111.5" font-size="13" font-weight="600" text-anchor="middle" fill="#17181b">property</text>
<text x="192.0" y="156" font-size="11" text-anchor="middle" fill="#6a6d73">Ch 7</text>
<rect x="264.0" y="78.0" width="104.0" height="58.0" rx="6" fill="#ffffff" stroke="#cfcdc4"/>
<text x="316.0" y="111.5" font-size="13" font-weight="600" text-anchor="middle" fill="#17181b">structure</text>
<text x="316.0" y="156" font-size="11" text-anchor="middle" fill="#6a6d73">Ch 8</text>
<rect x="388.0" y="78.0" width="104.0" height="58.0" rx="6" fill="#ffffff" stroke="#cfcdc4"/>
<text x="440.0" y="111.5" font-size="13" font-weight="600" text-anchor="middle" fill="#17181b">design</text>
<text x="440.0" y="156" font-size="11" text-anchor="middle" fill="#6a6d73">Ch 9</text>
<rect x="512.0" y="78.0" width="104.0" height="58.0" rx="6" fill="#ffffff" stroke="#cfcdc4"/>
<text x="564.0" y="111.5" font-size="13" font-weight="600" text-anchor="middle" fill="#17181b">cell</text>
<text x="564.0" y="156" font-size="11" text-anchor="middle" fill="#6a6d73">Ch 10</text>
<line x1="120" y1="107" x2="140" y2="107" stroke="#274b6d" stroke-width="2" marker-end="url(#mparw)"/>
<line x1="244" y1="107" x2="264" y2="107" stroke="#274b6d" stroke-width="2" marker-end="url(#mparw)"/>
<line x1="368" y1="107" x2="388" y2="107" stroke="#274b6d" stroke-width="2" marker-end="url(#mparw)"/>
<line x1="492" y1="107" x2="512" y2="107" stroke="#274b6d" stroke-width="2" marker-end="url(#mparw)"/>
<text x="320" y="186" font-size="11" text-anchor="middle" fill="#6a6d73">pick it, characterize it, see it, build it, put it to work</text>
</svg>