<svg xmlns="http://www.w3.org/2000/svg" viewBox="0 0 640 235" font-family="-apple-system, BlinkMacSystemFont, 'Segoe UI', Helvetica, Arial, sans-serif" role="img" aria-label="One DNA window predicts many regulatory tracks.">
<defs><marker id="s2farw" viewBox="0 0 10 10" refX="9" refY="5" markerWidth="6" markerHeight="6" orient="auto-start-reverse"><path d="M 0 0 L 10 5 L 0 10 z" fill="#274b6d"/></marker></defs>
<text x="24.0" y="30.0" font-size="11" font-weight="700" fill="#6a6d73" letter-spacing="1">SEQUENCE TO FUNCTION</text>
<rect x="24.0" y="92.0" width="150.0" height="60.0" rx="6" fill="#eaf0f6" stroke="#274b6d"/>
<text x="99.0" y="126.2" font-size="12" font-weight="600" text-anchor="middle" fill="#17181b">~1 Mb DNA window</text>
<rect x="232.0" y="92.0" width="120.0" height="60.0" rx="6" fill="#ffffff" stroke="#cfcdc4"/>
<text x="292.0" y="126.2" font-size="12" font-weight="600" text-anchor="middle" fill="#17181b">sequence model</text>
<line x1="174" y1="122" x2="232" y2="122" stroke="#274b6d" stroke-width="2" marker-end="url(#s2farw)"/>
<line x1="352" y1="122" x2="408" y2="122" stroke="#274b6d" stroke-width="2" marker-end="url(#s2farw)"/>
<polyline points="418,72 432,79 446,67 460,81 474,66 488,76 502,64 516,78 530,69 544,79 558,72" fill="none" stroke="#274b6d" stroke-width="1.6"/>
<text x="566" y="76" font-size="10" text-anchor="start" fill="#6a6d73">RNA-seq</text>
<polyline points="418,110 432,117 446,105 460,119 474,104 488,114 502,102 516,116 530,107 544,117 558,110" fill="none" stroke="#6b4f9c" stroke-width="1.6"/>
<text x="566" y="114" font-size="10" text-anchor="start" fill="#6a6d73">ATAC</text>
<polyline points="418,148 432,155 446,143 460,157 474,142 488,152 502,140 516,154 530,145 544,155 558,148" fill="none" stroke="#9c6b12" stroke-width="1.6"/>
<text x="566" y="152" font-size="10" text-anchor="start" fill="#6a6d73">ChIP-seq</text>
<polyline points="418,186 432,193 446,181 460,195 474,180 488,190 502,178 516,192 530,183 544,193 558,186" fill="none" stroke="#b04a3f" stroke-width="1.6"/>
<text x="566" y="190" font-size="10" text-anchor="start" fill="#6a6d73">Hi-C</text>
</svg>