<svg xmlns="http://www.w3.org/2000/svg" viewBox="0 0 680 300" font-family="-apple-system, BlinkMacSystemFont, 'Segoe UI', Helvetica, Arial, sans-serif" role="img" aria-label="Deliver a ranked shortlist matched to the partner's throughput">
<defs><marker id="arrow_stt" viewBox="0 0 10 10" refX="9" refY="5" markerWidth="6" markerHeight="6" orient="auto-start-reverse"><path d="M 0 0 L 10 5 L 0 10 z" fill="#274b6d"/></marker></defs>
<text x="24.0" y="28.0" font-size="11" font-weight="700" fill="#6a6d73" letter-spacing="1">SIZED TO THE WELLS, NOT THE MODEL</text>
<rect x="50" y="70" width="70" height="180" rx="4" fill="#eaf0f6" stroke="#cfcdc4"/>
<text x="85" y="62" text-anchor="middle" font-family="-apple-system, BlinkMacSystemFont, 'Segoe UI', Helvetica, Arial, sans-serif" font-size="10" fill="#17181b">model output</text>
<text x="85" y="165" text-anchor="middle" font-family="-apple-system, BlinkMacSystemFont, 'Segoe UI', Helvetica, Arial, sans-serif" font-size="9.5" fill="#6a6d73">~millions</text>
<text x="85" y="179" text-anchor="middle" font-family="-apple-system, BlinkMacSystemFont, 'Segoe UI', Helvetica, Arial, sans-serif" font-size="9.5" fill="#6a6d73">scored</text>
<line x1="122" y1="160" x2="242" y2="130" stroke="#274b6d" stroke-width="1.6" marker-end="url(#arrow_stt)"/>
<rect x="250.0" y="78.0" width="60.0" height="32.0" rx="6" fill="#ffffff" stroke="#cfcdc4"/>
<text x="280.0" y="97.8" font-size="11" font-weight="600" text-anchor="middle" fill="#17181b">#1</text>
<rect x="320" y="84" width="70" height="10" rx="2" fill="#274b6d"/>
<text x="398" y="102" font-family="-apple-system, BlinkMacSystemFont, 'Segoe UI', Helvetica, Arial, sans-serif" font-size="9.5" fill="#6a6d73">fits pocket</text>
<rect x="250.0" y="122.0" width="60.0" height="32.0" rx="6" fill="#ffffff" stroke="#cfcdc4"/>
<text x="280.0" y="141.8" font-size="11" font-weight="600" text-anchor="middle" fill="#17181b">#2</text>
<rect x="320" y="128" width="58" height="10" rx="2" fill="#274b6d"/>
<text x="386" y="146" font-family="-apple-system, BlinkMacSystemFont, 'Segoe UI', Helvetica, Arial, sans-serif" font-size="9.5" fill="#6a6d73">novel scaffold</text>
<rect x="250.0" y="166.0" width="60.0" height="32.0" rx="6" fill="#ffffff" stroke="#cfcdc4"/>
<text x="280.0" y="185.8" font-size="11" font-weight="600" text-anchor="middle" fill="#17181b">#3</text>
<rect x="320" y="172" width="44" height="10" rx="2" fill="#274b6d"/>
<text x="372" y="190" font-family="-apple-system, BlinkMacSystemFont, 'Segoe UI', Helvetica, Arial, sans-serif" font-size="9.5" fill="#6a6d73">high-conf</text>
<rect x="250.0" y="210.0" width="60.0" height="32.0" rx="6" fill="#ffffff" stroke="#cfcdc4"/>
<text x="280.0" y="229.8" font-size="11" font-weight="600" text-anchor="middle" fill="#17181b">#4</text>
<rect x="320" y="216" width="30" height="10" rx="2" fill="#274b6d"/>
<text x="358" y="234" font-family="-apple-system, BlinkMacSystemFont, 'Segoe UI', Helvetica, Arial, sans-serif" font-size="9.5" fill="#6a6d73">explore pick</text>
<line x1="470" y1="150" x2="540" y2="150" stroke="#274b6d" stroke-width="1.6" marker-end="url(#arrow_stt)"/>
<circle cx="560" cy="95" r="9" fill="none" stroke="#9c6b12" stroke-width="1.5"/>
<circle cx="586" cy="95" r="9" fill="none" stroke="#9c6b12" stroke-width="1.5"/>
<circle cx="612" cy="95" r="9" fill="none" stroke="#9c6b12" stroke-width="1.5"/>
<circle cx="560" cy="125" r="9" fill="none" stroke="#9c6b12" stroke-width="1.5"/>
<circle cx="586" cy="125" r="9" fill="none" stroke="#9c6b12" stroke-width="1.5"/>
<circle cx="612" cy="125" r="9" fill="none" stroke="#9c6b12" stroke-width="1.5"/>
<circle cx="560" cy="155" r="9" fill="none" stroke="#9c6b12" stroke-width="1.5"/>
<circle cx="586" cy="155" r="9" fill="none" stroke="#9c6b12" stroke-width="1.5"/>
<circle cx="612" cy="155" r="9" fill="none" stroke="#9c6b12" stroke-width="1.5"/>
<circle cx="560" cy="185" r="9" fill="none" stroke="#9c6b12" stroke-width="1.5"/>
<circle cx="586" cy="185" r="9" fill="none" stroke="#9c6b12" stroke-width="1.5"/>
<circle cx="612" cy="185" r="9" fill="none" stroke="#9c6b12" stroke-width="1.5"/>
<text x="586" y="235" text-anchor="middle" font-family="-apple-system, BlinkMacSystemFont, 'Segoe UI', Helvetica, Arial, sans-serif" font-size="9.5" fill="#6a6d73">wet-lab capacity,</text>
<text x="586" y="249" text-anchor="middle" font-family="-apple-system, BlinkMacSystemFont, 'Segoe UI', Helvetica, Arial, sans-serif" font-size="9.5" fill="#6a6d73">this round</text>
</svg>