<svg xmlns="http://www.w3.org/2000/svg" viewBox="0 0 640 260" font-family="-apple-system, BlinkMacSystemFont, 'Segoe UI', Helvetica, Arial, sans-serif" role="img" aria-label="static structure versus ensemble">
<line x1="320" y1="40" x2="320" y2="220" stroke="#e4e3dd" stroke-width="1"/>
<text x="30.0" y="30.0" font-size="11" font-weight="700" fill="#6a6d73" letter-spacing="1">WHAT THE MODEL RETURNS</text>
<text x="345.0" y="30.0" font-size="11" font-weight="700" fill="#6a6d73" letter-spacing="1">WHAT THE MOLECULE DOES</text>
<path d="M 48 150 C 98 88, 168 186, 238 120" fill="none" stroke="#274b6d" stroke-width="3" opacity="1.0" stroke-linecap="round"/>
<circle cx="48" cy="150" r="5" fill="#274b6d"/>
<circle cx="238" cy="120" r="5" fill="#274b6d"/>
<text x="160" y="212" font-size="12" text-anchor="middle" fill="#3b3d42">one most-likely fold</text>
<path d="M 362 136 C 412 74, 482 172, 552 106" fill="none" stroke="#274b6d" stroke-width="3" opacity="0.85" stroke-linecap="round"/>
<path d="M 362 158 C 412 96, 482 194, 552 128" fill="none" stroke="#6b4f9c" stroke-width="3" opacity="0.7" stroke-linecap="round"/>
<path d="M 362 176 C 412 114, 482 212, 552 146" fill="none" stroke="#9c6b12" stroke-width="3" opacity="0.7" stroke-linecap="round"/>
<path d="M 552 146 q 16 -20 30 -2 q 14 18 28 -2 q 12 -16 22 4" fill="none" stroke="#b04a3f" stroke-width="2" stroke-linecap="round"/>
<text x="476" y="212" font-size="12" text-anchor="middle" fill="#3b3d42">an ensemble of states</text>
<text x="580" y="128" font-size="10.5" text-anchor="middle" fill="#b04a3f">disorder</text>
</svg>